<?xml version="1.0" encoding="UTF-8"?>
<svg xmlns="http://www.w3.org/2000/svg" xmlns:xlink="http://www.w3.org/1999/xlink" version="1.1" id="Capa_1" x="0px" y="0px" viewBox="0 0 512 512" style="enable-background:new 0 0 512 512;" xml:space="preserve" width="512" height="512">
<g>
	<g>
		<path style="fill:#7AD7EE;" d="M392.274,143.774c-49.173,0-107.181,49.529-136.274,77.789&#10;&#9;&#9;&#9;c-29.094-28.26-87.101-77.789-136.274-77.789C57.843,143.774,7.5,194.118,7.5,256s50.343,112.226,112.226,112.226&#10;&#9;&#9;&#9;c49.177,0,107.188-49.537,136.274-77.789c29.086,28.252,87.097,77.789,136.274,77.789c61.882,0,112.226-50.343,112.226-112.226&#10;&#9;&#9;&#9;S454.157,143.774,392.274,143.774z M119.726,320.129c-35.36,0-64.129-28.769-64.129-64.129s28.769-64.129,64.129-64.129&#10;&#9;&#9;&#9;c27.689,0,75.897,38.143,106.279,67.632C199.799,281.021,151.837,320.129,119.726,320.129z M392.274,320.129&#10;&#9;&#9;&#9;c-32.111,0-78.381-43.452-104.587-64.97c30.381-29.489,76.898-63.288,104.587-63.288c35.36,0,64.129,28.769,64.129,64.129&#10;&#9;&#9;&#9;S427.634,320.129,392.274,320.129z"/>
		<path style="fill:#4BC3EF;" d="M392.274,167.823c-8.094,0-17.175,1.847-27.007,5.495l-18.216,6.756l31.219,14.224&#10;&#9;&#9;&#9;c4.987-1.513,9.717-2.427,14.005-2.427c35.36,0,64.129,28.769,64.129,64.129s-28.769,64.129-64.129,64.129&#10;&#9;&#9;&#9;c-10.965,0-23.371-5.029-35.992-12.429l-14.907,19.49l8.314,4.454c15.743,8.431,29.677,12.533,42.586,12.533&#10;&#9;&#9;&#9;c48.621,0,88.177-39.556,88.177-88.177S440.895,167.823,392.274,167.823z"/>
		<path style="fill:#4BC3EF;" d="M264.016,249.127l-24.769,24.056c-45.772,44.457-90.448,70.994-119.522,70.994&#10;&#9;&#9;&#9;c-48.621,0-88.177-39.556-88.177-88.177s39.556-88.177,88.177-88.177h8.016v-23.564c-2.691-0.275-5.371-0.485-8.016-0.485&#10;&#9;&#9;&#9;C57.843,143.774,7.5,194.118,7.5,256s50.343,112.226,112.226,112.226c49.177,0,107.188-49.537,136.274-77.789&#10;&#9;&#9;&#9;C257.822,292.207,264.016,249.127,264.016,249.127z"/>
		<path style="fill:#77CC7D;" d="M308.39,177.669c-20.944,14.707-39.507,31.381-52.39,43.895L222.472,256&#10;&#9;&#9;&#9;c-26.206,21.517-70.634,64.129-102.746,64.129c-20.706,0-39.097-9.908-50.83-25.183l-0.039,0.022&#10;&#9;&#9;&#9;c19.048,27.854,75.889,56.782,133.964,39.902c21.265-14.841,35.086-36.819,48.126-49.485l33.528-34.436&#10;&#9;&#9;&#9;c30.381-29.489,80.11-59.076,107.798-59.076c20.705,0,39.096,9.907,50.829,25.182l0.04-0.02&#10;&#9;&#9;&#9;C424.043,188.888,366.648,159.637,308.39,177.669z"/>
		<path style="fill:#52BD7E;" d="M364.672,173.642c-36.345,13.755-75.382,49.071-91.888,65.096l-19.328,18.764l19.231,15.794&#10;&#9;&#9;&#9;L289.528,256c30.381-29.489,75.057-64.129,102.746-64.129c20.705,0,39.096,9.907,50.829,25.182l0.04-0.02&#10;&#9;&#9;&#9;C430.378,198.223,400.474,178.995,364.672,173.642z"/>
		<path style="fill:#52BD7E;" d="M264.016,249.127l-24.769,24.056c-33.143,32.191-65.679,54.918-92.166,65.046&#10;&#9;&#9;&#9;c17.58,2.721,36.577,2.209,55.739-3.361c21.265-14.841,40.139-31.766,53.179-44.432l8.811-9.049&#10;&#9;&#9;&#9;C264.705,267.601,264.016,249.127,264.016,249.127z"/>
		<path style="fill:#FF7E92;" d="M374.045,316.382l0.001-0.016c-29.189-10.836-62.994-42.693-84.518-60.366&#10;&#9;&#9;&#9;C283.592,250.246,256,221.564,256,221.564c-29.094-28.26-87.101-77.789-136.274-77.789c-59.653,0-108.443,46.819-111.891,105.622&#10;&#9;&#9;&#9;c5.892-60.871,93.12-71.648,130.12-53.778l0.011,0.069c26.615,9.757,60.146,36.669,84.506,60.313L256,290.436&#10;&#9;&#9;&#9;c29.086,28.252,87.097,77.789,136.274,77.789c59.653,0,108.443-46.819,111.891-105.622&#10;&#9;&#9;&#9;C498.274,323.474,411.045,334.251,374.045,316.382z"/>
	</g>
	<g>
		<path style="fill:none;stroke:#000000;stroke-width:15;stroke-linecap:round;stroke-linejoin:round;stroke-miterlimit:10;" d="&#10;&#9;&#9;&#9;M392.274,368.226c-49.173,0-107.181-49.529-136.274-77.789c-29.086,28.252-87.097,77.789-136.274,77.789&#10;&#9;&#9;&#9;C57.843,368.226,7.5,317.882,7.5,256s50.343-112.226,112.226-112.226c49.173,0,107.181,49.529,136.274,77.789&#10;&#9;&#9;&#9;c29.086-28.252,87.097-77.789,136.274-77.789c61.882,0,112.226,50.343,112.226,112.226S454.157,368.226,392.274,368.226z&#10;&#9;&#9;&#9; M289.528,256c30.381,29.489,75.057,64.129,102.746,64.129c35.36,0,64.129-28.769,64.129-64.129s-28.769-64.129-64.129-64.129&#10;&#9;&#9;&#9;c-20.363,0-49.92,18.737-76.22,40.386 M222.472,256c-30.381-29.489-75.057-64.129-102.746-64.129&#10;&#9;&#9;&#9;c-35.36,0-64.129,28.769-64.129,64.129s28.769,64.129,64.129,64.129c20.266,0,49.638-18.559,75.843-40.076"/>
		<path style="fill:none;stroke:#000000;stroke-width:15;stroke-linecap:round;stroke-linejoin:round;stroke-miterlimit:10;" d="&#10;&#9;&#9;&#9;M256,256"/>
		<path style="fill:none;stroke:#000000;stroke-width:15;stroke-linecap:round;stroke-linejoin:round;stroke-miterlimit:10;" d="&#10;&#9;&#9;&#9;M255.943,290.377c-9.259-8.997-15.578-15.829-17.737-18.204c-4.315-4.736-9.302-9.896-14.774-15.24"/>
		<path style="fill:none;stroke:#000000;stroke-width:15;stroke-linecap:round;stroke-linejoin:round;stroke-miterlimit:10;" d="&#10;&#9;&#9;&#9;M256.763,222.311c8.874,8.657,14.927,15.202,17.03,17.516c4.624,5.075,9.798,10.419,15.735,16.173"/>
		<path style="fill:none;stroke:#000000;stroke-width:15;stroke-linecap:round;stroke-linejoin:round;stroke-miterlimit:10;" d="&#10;&#9;&#9;&#9;M137.955,195.618C99.652,177.119,7.5,189.307,7.5,256"/>
		<path style="fill:none;stroke:#000000;stroke-width:15;stroke-linecap:round;stroke-linejoin:round;stroke-miterlimit:10;" d="&#10;&#9;&#9;&#9;M374.045,316.382C412.348,334.881,504.5,322.693,504.5,256"/>
		<path style="fill:none;stroke:#000000;stroke-width:15;stroke-linecap:round;stroke-linejoin:round;stroke-miterlimit:10;" d="&#10;&#9;&#9;&#9;M68.857,294.967c19.152,28.836,77.64,58.978,136.074,38.086"/>
		<path style="fill:none;stroke:#000000;stroke-width:15;stroke-linecap:round;stroke-linejoin:round;stroke-miterlimit:10;" d="&#10;&#9;&#9;&#9;M443.143,217.033c-19.152-28.836-77.64-58.978-136.074-38.086"/>
	</g>
</g>















</svg>
